<svg width="98" height="64" viewBox="0 0 98 64" fill="none" xmlns="http://www.w3.org/2000/svg">
<path fill-rule="evenodd" clip-rule="evenodd" d="M2.94491 36.7595C0.981636 39.9288 0 43.4106 0 47.2048C0 50.3741 0.75854 53.2086 2.27562 55.7084C3.74807 58.2527 5.95676 60.2615 8.90167 61.7345C11.802 63.2076 15.3493 63.9441 19.5435 63.9441C25.478 63.9441 30.9216 62.3594 35.8744 59.1901C39.6128 56.8102 42.7817 53.498 45.3812 49.2535C45.7234 51.0452 46.2055 52.6835 46.8273 54.1684C48.2105 57.4716 50.0399 59.9267 52.3156 61.5337C54.6358 63.1407 57.1568 63.9442 59.8786 63.9442C64.8315 63.9442 67.8656 60.8418 68.9811 54.6371L71.8591 38.5004C77.035 38.1433 81.497 36.9604 85.2451 34.9517C88.9931 32.943 91.8488 30.354 93.8121 27.1847C95.7754 24.0154 96.757 20.5336 96.757 16.7394C96.757 13.5701 95.9985 10.7355 94.4814 8.2358C93.0089 5.69143 90.8003 3.68272 87.8553 2.20966C84.955 0.736602 81.4078 7.1322e-05 77.2135 7.1322e-05C71.279 7.1322e-05 65.8354 1.58473 60.8826 4.75403C57.1442 7.13397 53.9753 10.4462 51.3758 14.6906C51.0336 12.899 50.5515 11.2607 49.9297 9.77575C48.5465 6.47253 46.7171 4.01743 44.4415 2.41046C42.1212 0.803486 39.6002 0 36.8784 0C31.9256 0 28.8914 3.10235 27.7759 9.30705L24.8979 25.4437C19.722 25.8008 15.26 26.9837 11.5119 28.9925C7.76387 31.0012 4.90819 33.5902 2.94491 36.7595ZM9.97255 46.6022C9.97255 38.2549 14.5461 33.5009 23.6932 32.3403C24.4495 32.3057 33.9922 32.2976 33.1972 32.3403C34.9177 32.4727 35.709 32.8501 37.0764 33.6649L39.7249 35.2432C40.8426 35.9092 41.6001 37.0441 41.7863 38.3319C41.8763 38.9539 42.0434 39.512 41.8312 40.1073C39.9571 45.2854 37.3246 49.3251 33.9335 52.2266C30.4977 55.1281 26.4819 56.5788 21.8861 56.5788C17.8257 56.5788 14.8361 55.6414 12.9175 53.7666C10.9542 51.9364 9.97255 49.5483 9.97255 46.6022ZM38.6675 25.6884C37.0886 25.9167 36.0024 25.9012 34.335 25.6446L36.5437 12.9897C37.1238 9.90966 37.9716 8.36965 39.0871 8.36965C39.8902 8.36965 40.738 8.94994 41.6304 10.1105C42.4782 11.3158 43.1921 12.9897 43.7722 15.1323C44.3076 17.275 44.5753 19.73 44.5753 22.4976C44.5753 24.1112 43.3382 25.0127 41.7187 25.247L38.6675 25.6884ZM52.1817 41.4466C52.1817 39.6008 52.8149 38.5617 54.8712 38.2643C56.8143 37.9832 58.2913 37.6555 60.1464 37.9648C59.9233 37.9202 60.6818 38.0317 62.422 38.2996L60.2133 50.9545C59.6332 54.0345 58.7854 55.5745 57.6699 55.5745C56.8668 55.5745 56.019 54.9942 55.1266 53.8336C54.2788 52.6284 53.5649 50.9545 52.9849 48.8119C52.4494 46.6692 52.1817 44.2141 52.1817 41.4466ZM59.5135 29.8464C61.3928 30.9663 61.0507 31.4108 63.5598 31.6039C64.3627 31.6656 71.1958 31.8409 73.0638 31.6039C82.2109 30.4433 86.7845 25.6893 86.7845 17.342C86.7845 14.3959 85.8028 12.0077 83.8395 10.1776C81.9209 8.30276 78.9313 7.36536 74.8709 7.36536C70.2751 7.36536 66.2593 8.8161 62.8236 11.7176C59.4324 14.6191 56.7999 18.6588 54.9258 23.8368C54.745 24.3441 54.7266 24.647 54.8036 25.1794C54.9899 26.4671 55.7473 27.6021 56.8651 28.2681L59.5135 29.8464ZM52.5264 24.0978C52.1384 21.4158 48.5959 20.7092 47.2087 23.0372L45.6704 25.6185C45.2264 26.3637 44.4697 26.8686 43.6113 26.9928L40.6373 27.423C37.9553 27.8109 37.2487 31.3535 39.5766 32.7407L42.1579 34.279C42.9031 34.723 43.4081 35.4796 43.5322 36.3381L43.9624 39.3121C44.3504 41.9941 47.8929 42.7007 49.2801 40.3728L50.8184 37.7914C51.2625 37.0463 52.0191 36.5413 52.8776 36.4171L55.8515 35.9869C58.5335 35.599 59.2401 32.0565 56.9122 30.6692L54.3309 29.131C53.5857 28.6869 53.0807 27.9303 52.9566 27.0718L52.5264 24.0978Z" fill="#F1A7F2"/>
</svg>
