<svg width="769" height="509" viewBox="0 0 769 509" fill="none" xmlns="http://www.w3.org/2000/svg">
<path fill-rule="evenodd" clip-rule="evenodd" d="M198.214 202.123L223.169 59.9842C227.803 37.1235 251.047 -6.67906 306.946 0.996448C376.82 10.5908 403.558 86.9906 407.836 116.129C430.771 72.7767 509.51 -9.1665 642.413 2.77318C814.959 18.2743 827.08 283.143 570.043 305.529L546.158 438.074C546.062 438.498 545.966 438.93 545.867 439.371C541.167 460.364 532.284 500.043 485.196 506.301C442.416 511.987 384.307 492.798 359.708 392.234C280.922 520.515 106.593 536.861 37.4323 467.923C-24.9552 405.737 -31.7285 224.155 198.214 202.123ZM671.289 88.412C704.325 131.646 696.957 230.394 588.225 249.74C559.608 254.831 520.896 258.717 489.118 247.608C457.34 236.498 428.854 212.834 434.573 188.975C444.199 148.821 467.299 112.172 513.36 82.3711C561.323 51.3399 642.236 50.3898 671.289 88.412ZM271.653 201.905L289.478 99.2092C292.567 77.6514 305.449 44.4856 332.258 84.2846C339.625 95.8926 354.076 130.835 352.935 177.741C352.65 189.467 341.527 208.443 271.653 201.905ZM370.461 191.019C376.162 179.863 381.311 169.786 398.21 172.629C415.017 175.458 416.094 187.744 417.242 200.843C417.969 209.138 418.724 217.759 423.522 224.51C428.202 231.097 435.454 234.887 442.433 238.535C453.903 244.53 464.639 250.141 462.024 267.152C459.483 283.674 448.036 284.552 435.293 285.529C426.933 286.171 418.015 286.854 410.688 292.026C403.731 296.937 399.539 304.47 395.551 311.635C389.036 323.342 383.068 334.066 366.482 330.759C350.565 327.586 349.43 316.101 348.184 303.502C347.338 294.937 346.44 285.857 340.814 278.523C335.679 271.83 328.454 267.658 321.688 263.75C310.132 257.077 299.915 251.176 303.738 234.815C307.364 219.293 318.754 218.265 331.303 217.133C339.726 216.372 348.672 215.565 356.143 210.296C363.127 205.371 366.902 197.985 370.461 191.019ZM477.061 407.073L494.886 304.378C425.012 297.839 413.889 316.815 413.604 328.542C412.463 375.447 426.913 410.39 434.281 421.998C461.089 461.797 473.971 428.631 477.061 407.073ZM178.097 259.031C69.3648 278.377 61.9971 377.125 95.0328 420.359C124.086 458.381 204.999 457.431 252.962 426.4C299.023 396.599 322.123 359.95 331.749 319.795C337.468 295.937 308.982 272.272 277.204 261.163C245.426 250.053 206.714 253.939 178.097 259.031Z" fill="#F1A7F2"/>
</svg>
